# xmcd
#
# Track frame offsets: 
#        150
#        15523
#        32024
#        59674
#        63554
#        87550
#        92699
#        117941
#        145909
#        170185
#        184849
#        195670
#        216624
#        219161
#        238301
#        256840
#        258162
#        261654
#        287961
#        292207
#        294394
#        298210
#        301202
#        320860
#
# Disc length: 4318 seconds
#
# Revision: 0
# Processed by: cddbd v1.5.2PL0 Copyright (c) Steve Scherf et al.
# Submitted via: ExactAudioCopy v0.95b4
#
DISCID=9710dc18
DTITLE=Alaska - 2000-08-12 - Dew Drop Inn - York PA
DYEAR=2000
DGENRE=Progressive Rock
TTITLE0=Light My Fire
TTITLE1=Oye Como Va
TTITLE2=Voodoo Child (Slight Return)
TTITLE3=Band Discussion
TTITLE4=Dream On
TTITLE5=Band Discussion
TTITLE6=Riding The Storm Out
TTITLE7=Mary Jane's Last Dance
TTITLE8=Rocking In The Free World
TTITLE9=That's What I Like About You
TTITLE10=Golden Slumbers [cut]
TTITLE11=Venus Isle
TTITLE12=Band Discussion
TTITLE13=The Ocean
TTITLE14=Purple Haze
TTITLE15=Band Introduction
TTITLE16=Band Discussion
TTITLE17=Smoke On The Water
TTITLE18=Band Discussion
TTITLE19=Don't Quit Your Day Job
TTITLE20=Band Discussion
TTITLE21=The Fine Art Of Tuning
TTITLE22=Willin'
TTITLE23=Closing Remarks
EXTD=
EXTT0=
EXTT1=
EXTT2=
EXTT3=
EXTT4=
EXTT5=
EXTT6=
EXTT7=
EXTT8=
EXTT9=
EXTT10=
EXTT11=
EXTT12=
EXTT13=
EXTT14=
EXTT15=
EXTT16=
EXTT17=
EXTT18=
EXTT19=
EXTT20=
EXTT21=
EXTT22=
EXTT23=
PLAYORDER=
